<svg width="27" height="27" viewBox="0 0 27 27" fill="none" xmlns="http://www.w3.org/2000/svg">
<path d="M15.0693 9.11725L11.2049 9.60156L11.0665 10.2428L11.8259 10.3829C12.322 10.501 12.4199 10.6799 12.3119 11.1743L11.0665 17.0266C10.7392 18.5402 11.2437 19.2524 12.43 19.2524C13.3497 19.2524 14.4179 18.8271 14.9022 18.2433L15.0507 17.5413C14.7132 17.8383 14.2205 17.9564 13.8931 17.9564C13.429 17.9564 13.2603 17.6307 13.3801 17.0569L15.0693 9.11725ZM16.1874 5.59375C16.1874 6.0413 16.0096 6.47052 15.6932 6.78699C15.3767 7.10346 14.9475 7.28125 14.4999 7.28125C14.0524 7.28125 13.6231 7.10346 13.3067 6.78699C12.9902 6.47052 12.8124 6.0413 12.8124 5.59375C12.8124 5.1462 12.9902 4.71697 13.3067 4.40051C13.6231 4.08404 14.0524 3.90625 14.4999 3.90625C14.9475 3.90625 15.3767 4.08404 15.6932 4.40051C16.0096 4.71697 16.1874 5.1462 16.1874 5.59375Z" fill="#999999"/>
</svg>
