<svg width="30" height="25" viewBox="0 0 30 25" fill="none" xmlns="http://www.w3.org/2000/svg">
<path d="M0.96 17.28C0.96 14.9333 1.46667 12.6933 2.48 10.56C3.49333 8.42666 4.82667 6.48 6.48 4.72C8.18667 2.90666 10.0267 1.36 12 0.079999L13.52 2.24C11.6 3.78666 10.0267 5.25333 8.8 6.64C7.62667 7.97333 6.58667 9.70666 5.68 11.84L8 13.92C9.22667 14.9333 10.0533 15.92 10.48 16.88C10.9067 17.84 11.12 18.8267 11.12 19.84C11.12 21.44 10.6933 22.64 9.84 23.44C8.98667 24.1867 7.84 24.56 6.4 24.56C5.6 24.56 4.82667 24.4533 4.08 24.24C3.38667 23.9733 2.72 23.5467 2.08 22.96C1.33333 21.1467 0.96 19.2533 0.96 17.28ZM17.2 17.28C17.2 14.9333 17.7067 12.6933 18.72 10.56C19.7333 8.42666 21.0667 6.48 22.72 4.72C24.4267 2.90666 26.2667 1.36 28.24 0.079999L29.76 2.24C27.84 3.78666 26.2667 5.25333 25.04 6.64C23.8667 7.97333 22.8267 9.70666 21.92 11.84L24.24 13.92C25.4667 14.9333 26.2933 15.92 26.72 16.88C27.1467 17.84 27.36 18.8267 27.36 19.84C27.36 21.44 26.9333 22.64 26.08 23.44C25.2267 24.1867 24.08 24.56 22.64 24.56C21.84 24.56 21.0667 24.4533 20.32 24.24C19.6267 23.9733 18.96 23.5467 18.32 22.96C17.5733 21.1467 17.2 19.2533 17.2 17.28Z" fill="#964B48"/>
</svg>
