<svg width="92" height="15" viewBox="0 0 92 15" fill="none" xmlns="http://www.w3.org/2000/svg">
<path fill-rule="evenodd" clip-rule="evenodd" d="M14.0278 0.0461886C13.5836 0.0785373 12.9906 0.162778 12.71 0.233379C12.4295 0.303981 11.9771 0.443354 11.7048 0.543144C11.4324 0.642935 10.976 0.898648 10.6905 1.11137C10.405 1.324 10.0441 1.68034 9.88856 1.90312C9.73289 2.12582 9.52562 2.56548 9.42802 2.87998C9.28792 3.33095 9.25697 3.61452 9.28154 4.22125C9.30713 4.85209 9.35703 5.0851 9.55835 5.51461C9.71844 5.85606 9.94824 6.16542 10.2179 6.40267C10.4456 6.60283 10.8038 6.83085 11.0139 6.90935L11.3959 7.05205L10.9248 7.23941C10.6657 7.34236 10.3197 7.52664 10.1559 7.64888C9.99211 7.77104 9.76155 7.97145 9.64363 8.09403C9.52571 8.21669 9.28749 8.59589 9.11423 8.93668L8.79924 9.55638L8.80221 10.6414C8.80494 11.6449 8.82364 11.7704 9.05089 12.3087C9.24039 12.7575 9.42471 13.0145 9.85566 13.4313C10.2032 13.7674 10.6235 14.072 10.9672 14.2365C11.2711 14.3822 11.8067 14.5793 12.1574 14.6747C12.5081 14.7702 13.2616 14.8917 13.8319 14.9449C14.6166 15.0181 15.2059 15.0183 16.2549 14.946C17.0903 14.8883 17.9112 14.7808 18.3211 14.6752C18.6952 14.5789 19.2404 14.3886 19.5326 14.2525L20.064 14.0049V12.5129V11.0208L19.6899 11.3C19.4842 11.4537 19.0162 11.7014 18.65 11.8506C18.2837 11.9997 17.639 12.1913 17.2174 12.2764C16.7833 12.3641 16.0945 12.4317 15.6293 12.4323C15.1775 12.4329 14.5272 12.3804 14.184 12.3157C13.8409 12.251 13.3878 12.1252 13.1769 12.0362C12.9662 11.9473 12.6684 11.7713 12.5151 11.6451C12.3617 11.5189 12.1803 11.3098 12.1118 11.1803C12.0425 11.0492 11.9874 10.7203 11.9874 10.4384C11.9874 10.0987 12.0425 9.82631 12.1549 9.61076C12.2471 9.43405 12.4671 9.17251 12.6438 9.02948C12.8204 8.88653 13.2137 8.69252 13.5177 8.59839C13.9287 8.47107 14.5059 8.40246 15.7706 8.33053L17.471 8.2339L17.4946 7.09937L17.5181 5.96475L16.1768 5.90787C15.4391 5.8766 14.5868 5.81532 14.2828 5.77174C13.9789 5.72808 13.5198 5.59071 13.2626 5.4663C12.922 5.30165 12.7434 5.1498 12.6051 4.90756C12.5007 4.72461 12.4146 4.44021 12.4138 4.27547C12.413 4.11082 12.4558 3.84887 12.5089 3.69336C12.5619 3.53794 12.724 3.28754 12.869 3.13703C13.0342 2.96564 13.3077 2.81038 13.6014 2.72123C13.9585 2.61305 14.3339 2.58311 15.1755 2.596C15.9649 2.60806 16.4719 2.66128 16.9498 2.78219C17.3178 2.87541 17.8229 3.05977 18.0724 3.19191C18.3218 3.32405 18.5468 3.41178 18.5723 3.38675C18.5978 3.36181 18.6187 2.74976 18.6187 2.02661C18.6187 0.754451 18.6125 0.707965 18.4274 0.591044C18.3221 0.524517 17.922 0.392295 17.5381 0.297078C17.1542 0.201945 16.609 0.105813 16.3266 0.0834435C16.0442 0.0610739 15.5932 0.0303059 15.3243 0.0150879C15.0554 -0.000130132 14.472 0.0138399 14.0278 0.0461886ZM51.8823 0.0600755C51.8329 0.119118 50.4831 2.69346 48.8828 5.78072C47.2825 8.86799 45.5986 12.1151 45.1408 12.9964L44.3084 14.5989L46.0201 14.5764L47.7319 14.554L48.2595 13.4313L48.7871 12.3087L52.0304 12.2869L55.2737 12.2651L55.8412 13.4297L56.4086 14.5944L58.0877 14.595C59.0112 14.5953 59.7668 14.571 59.7668 14.541C59.7668 14.511 58.0393 11.246 55.9278 7.28539C53.8163 3.3248 52.0625 0.0546702 52.0305 0.0184962C51.9983 -0.017761 51.9317 0.000949687 51.8823 0.0600755ZM21.5943 7.36074V14.6787H23.1671H24.7399V10.6802C24.7399 8.37577 24.7719 6.69339 24.8156 6.70935C24.8573 6.72457 27.0369 8.58907 29.6592 10.8527C32.2815 13.1161 34.4661 14.9809 34.5138 14.9965C34.5723 15.0156 34.6079 13.0456 34.6225 8.96828L34.6443 2.91175L37.0036 2.88963L39.3628 2.86751V8.7731V14.6787H40.9356H42.5084V8.77443V2.87017H44.9336H47.3588L47.3353 1.602L47.3119 0.333834H39.4053H31.4987L31.4767 4.47097C31.4645 6.74644 31.434 8.60812 31.4089 8.60812C31.3837 8.60812 30.0564 7.43874 28.4594 6.00941C26.8623 4.58016 24.8865 2.81196 24.0687 2.08017C23.2508 1.34837 22.4017 0.590628 22.1817 0.396203C21.9618 0.201778 21.7396 0.0427791 21.688 0.0427791C21.6204 0.0427791 21.5943 2.08166 21.5943 7.36074ZM0 7.48548V14.5955H4.16582H8.33165V13.2234V11.8513H5.78114H3.23064V6.11336V0.375414H1.61532H0V7.48548ZM66.2281 7.47907V14.5955H67.8434H69.4587V13.0571V11.5187L70.649 11.5038C71.3036 11.4956 71.9112 11.4863 71.9992 11.483C72.1034 11.4792 72.6548 12.0201 73.5823 13.0363C74.8 14.3703 75.0408 14.5958 75.2502 14.5975C75.3848 14.5986 76.2027 14.6004 77.0677 14.6014C77.9328 14.6026 78.6379 14.5736 78.6347 14.5372C78.6314 14.5007 78.3317 14.134 77.9686 13.7224C77.6055 13.3107 76.7861 12.3819 76.1478 11.6585L74.9872 10.3429L75.5174 9.82049C75.809 9.53317 76.1745 9.08994 76.3299 8.83547C76.4851 8.58101 76.7115 8.09827 76.833 7.76281C77.0134 7.26461 77.0605 6.96025 77.0903 6.1013C77.1207 5.22664 77.0968 4.93292 76.9484 4.35497C76.8503 3.97285 76.6487 3.4181 76.5005 3.12223C76.3237 2.7693 76.0227 2.38053 75.6253 1.99177C75.196 1.57182 74.8348 1.31053 74.3858 1.09515C74.0372 0.927919 73.446 0.709378 73.0719 0.609588C72.4445 0.442106 72.153 0.425475 69.3099 0.395372L66.2281 0.36269V7.47907ZM79.1512 4.51255C79.1515 7.7174 79.1796 8.82774 79.2755 9.4397C79.3437 9.87421 79.4585 10.4542 79.5306 10.7287C79.6028 11.0031 79.8395 11.5831 80.0568 12.0176C80.3762 12.6563 80.5756 12.9276 81.0978 13.4339C81.5224 13.8455 81.933 14.1517 82.2963 14.3276C82.6002 14.4748 83.1549 14.6764 83.529 14.7757C84.0942 14.9258 84.439 14.9563 85.5694 14.9563C86.6963 14.9563 87.0434 14.9257 87.5928 14.7782C87.9576 14.6803 88.5268 14.461 88.8579 14.2908C89.1888 14.1207 89.6643 13.7985 89.9146 13.5748C90.1648 13.3512 90.5407 12.8994 90.75 12.571C90.9592 12.2426 91.2309 11.7128 91.3538 11.3936C91.4766 11.0744 91.6567 10.4761 91.754 10.0641C91.9189 9.36636 91.9333 9.00844 91.9655 4.84519L92 0.375414H90.4278H88.8556L88.8222 4.80361C88.7903 9.03139 88.7805 9.26124 88.605 9.88252C88.5039 10.2404 88.3151 10.7258 88.1855 10.9611C88.0559 11.1964 87.8059 11.5266 87.6299 11.6947C87.4539 11.8628 87.1287 12.0883 86.9072 12.1957C86.558 12.3652 86.3798 12.3912 85.5634 12.3915C84.6846 12.3918 84.5892 12.3753 84.123 12.1421C83.8013 11.9812 83.497 11.7401 83.2667 11.4639C83.0703 11.2281 82.827 10.8196 82.7262 10.5559C82.6253 10.2922 82.4876 9.71795 82.4201 9.27987C82.3259 8.66924 82.2971 7.53762 82.2968 4.4294L82.2963 0.375414H80.7234H79.1506L79.1512 4.51255ZM72.1368 3.14393C72.3238 3.21071 72.6107 3.34359 72.7744 3.43931C72.938 3.53502 73.1709 3.7361 73.2918 3.8862C73.4128 4.03631 73.5617 4.25094 73.6229 4.3632C73.6841 4.47547 73.7855 4.75613 73.8483 4.98689C73.9112 5.21766 73.9631 5.63644 73.9636 5.91752C73.9642 6.19851 73.8873 6.6736 73.7926 6.97313C73.6646 7.37861 73.5134 7.63267 73.201 7.96696C72.915 8.27299 72.6134 8.48978 72.2537 8.64762C71.8412 8.82874 71.5087 8.89792 70.7306 8.96445C70.1831 9.01135 69.6729 9.02632 69.5969 8.9978C69.4729 8.95131 69.4587 8.6393 69.4587 5.95361V2.96123L69.9901 2.93653C70.2824 2.92289 70.8084 2.9367 71.1591 2.96713C71.5098 2.99757 71.9497 3.07707 72.1368 3.14393ZM52.9995 7.6636C53.5419 8.76786 53.9857 9.70922 53.9857 9.7557C53.9857 9.81017 53.294 9.84227 52.0344 9.84627C50.9611 9.84968 50.0627 9.82015 50.0377 9.78082C50.0128 9.7414 50.3914 8.86416 50.8791 7.83133C51.3667 6.79858 51.8092 5.87403 51.8624 5.7769C51.9155 5.67969 51.9713 5.61274 51.9862 5.62804C52.001 5.64343 52.4571 6.55942 52.9995 7.6636ZM62.2318 11.6753C62.1146 11.7125 61.9013 11.8023 61.7579 11.8748C61.6145 11.9473 61.387 12.1682 61.2524 12.3656C61.066 12.6388 61.0007 12.8436 60.9783 13.2234C60.9525 13.6603 60.9819 13.7776 61.214 14.1662C61.4326 14.5323 61.5617 14.6471 61.9505 14.8211C62.3372 14.9944 62.5 15.0231 62.8578 14.9817C63.1332 14.9498 63.417 14.8463 63.628 14.701C63.8117 14.5744 64.0541 14.3024 64.1665 14.0966C64.3348 13.7886 64.3654 13.6306 64.3392 13.2044C64.3141 12.7954 64.2545 12.613 64.0563 12.3386C63.9181 12.1473 63.6695 11.9224 63.5039 11.8387C63.3382 11.755 63.0321 11.6688 62.8238 11.6471C62.6153 11.6254 62.3489 11.6381 62.2318 11.6753Z" fill="white"/>
</svg>
