<svg width="18" height="16" viewBox="0 0 18 16" fill="none" xmlns="http://www.w3.org/2000/svg">
<path d="M4.2 12.2592H4.8V11.7259H4.2V12.2592ZM4.2 15.4571H3.6C3.6 15.5561 3.63103 15.6532 3.68961 15.7375C3.74819 15.8217 3.83201 15.8898 3.93167 15.9341C4.03134 15.9784 4.14291 15.9971 4.25388 15.9882C4.36486 15.9794 4.47086 15.9432 4.56 15.8837L4.2 15.4571ZM9 12.2592V11.7259H8.7996L8.64 11.8325L9 12.2592ZM5.4 4.26347H4.53333C4.23878 4.26347 4 4.50225 4 4.7968C4 5.09135 4.23878 5.33013 4.53333 5.33013H5.4V4.26347ZM12.6 5.33013H13.4667C13.7612 5.33013 14 5.09135 14 4.7968C14 4.50225 13.7612 4.26347 13.4667 4.26347H12.6V5.33013ZM5.4 7.46133H4.53333C4.23878 7.46133 4 7.70012 4 7.99467C4 8.28922 4.23878 8.528 4.53333 8.528H5.4V7.46133ZM10.2 8.528H13.4667C13.7612 8.528 14 8.28922 14 7.99467C14 7.70012 13.7612 7.46133 13.4667 7.46133H10.2V8.528ZM3.6 12.2592V15.4571H4.8V12.2592H3.6ZM4.56 15.8837L9.36 12.6859L8.64 11.8325L3.84 15.0304L4.56 15.8837ZM9 12.7925H16.2V11.7259H9V12.7925ZM16.2 12.7925C17.1948 12.7925 18 12.0779 18 11.1925H16.8C16.8 11.488 16.5324 11.7259 16.2 11.7259V12.7925ZM18 11.1925V1.6H16.8V11.1936H18V11.1925ZM18 1.6C18 0.714667 17.1948 0 16.2 0V1.06667C16.5324 1.06667 16.8 1.30453 16.8 1.6H18ZM16.2 0H1.8V1.06667H16.2V0ZM1.8 0C0.8052 0 0 0.714667 0 1.6H1.2C1.2 1.30453 1.4676 1.06667 1.8 1.06667V0ZM0 1.6V11.1925H1.2V1.6H0ZM0 11.1925C0 12.0779 0.8052 12.7925 1.8 12.7925V11.7259C1.72116 11.726 1.64307 11.7123 1.5702 11.6856C1.49734 11.6588 1.43113 11.6195 1.37538 11.57C1.31964 11.5204 1.27545 11.4616 1.24535 11.3968C1.21525 11.332 1.19984 11.2626 1.2 11.1925H0ZM1.8 12.7925H4.2V11.7259H1.8V12.7925ZM5.4 5.33013H12.6V4.26347H5.4V5.33013ZM5.4 8.528H10.2V7.46133H5.4V8.528Z" fill="#999999"/>
</svg>
